Coordinates
version=1
nRows=22
nColumns=24
inDegrees=yes

Units are S.I. units (second, meters, Newtons, ...)
Angles are in degrees.

endheader
time	pelvis_tilt	pelvis_list	pelvis_rotation	pelvis_tx	pelvis_ty	pelvis_tz	hip_flexion_r	hip_adduction_r	hip_rotation_r	knee_angle_r	ankle_angle_r	subtalar_angle_r	mtp_angle_r	hip_flexion_l	hip_adduction_l	hip_rotation_l	knee_angle_l	ankle_angle_l	subtalar_angle_l	mtp_angle_l	lumbar_extension	lumbar_bending	lumbar_rotation
      0.65800000	     -0.28469901	     -1.46669630	     -1.34413204	     -0.53376615	      1.06285055	      0.34364064	     13.00673733	      5.59202308	     -4.76661253	    -18.08192316	      7.35697647	     -2.17360411	      0.66921419	     18.90955216	     -3.03694325	     -2.00454624	    -69.36995544	      8.00553877	      5.22743719	      2.50994921	      1.02238262	      5.31141150	      0.48995901
      0.66216667	     -0.26835651	     -1.44064078	     -1.35452659	     -0.52858624	      1.06356362	      0.34397959	     12.60636181	      5.58633186	     -4.69137393	    -17.93764448	      7.50876567	     -2.07276058	      0.67356382	     19.46747734	     -2.97792752	     -1.80943350	    -69.11661187	      8.40193252	      5.09100334	      2.49714532	      0.99195737	      5.19618612	      0.56981916
      0.66633333	     -0.25932004	     -1.38354340	     -1.38029611	     -0.52339379	      1.06426400	      0.34416372	     12.22419359	      5.52981085	     -4.66525964	    -17.82370414	      7.71213765	     -1.98072271	      0.67812222	     20.00554337	     -2.86723211	     -1.63986847	    -68.77744089	      8.93683031	      4.88164978	      2.48191395	      0.96948791	      5.13208336	      0.65457538
      0.67050000	     -0.24959940	     -1.31318764	     -1.41854384	     -0.51826721	      1.06493922	      0.34431769	     11.84446903	      5.45739982	     -4.57730505	    -17.71214779	      7.80675085	     -1.93799186	      0.67999509	     20.52496618	     -2.73811035	     -1.47005467	    -68.33899069	      9.18351234	      4.77375215	      2.47403538	      0.91304045	      5.10267309	      0.69156371
      0.67466667	     -0.24390170	     -1.26176041	     -1.46014360	     -0.51302703	      1.06560968	      0.34453475	     11.46271388	      5.41430352	     -4.59009565	    -17.59412731	      8.08315402	     -1.80742540	      0.68517787	     21.01809763	     -2.63907779	     -1.35057892	    -67.84399436	      9.83834948	      4.41984534	      2.44488198	      0.89359038	      5.02563578	      0.81198765
      0.67883333	     -0.22928163	     -1.20432269	     -1.48487100	     -0.50781781	      1.06627061	      0.34472638	     11.06011216	      5.36364201	     -4.53390556	    -17.45011413	      8.26671855	     -1.70656616	      0.68792600	     21.48411403	     -2.52686361	     -1.20641144	    -67.25321511	     10.20662614	      4.15196716	      2.40852024	      0.86526686	      4.95110828	      0.91646094
      0.68300000	     -0.24445000	     -1.15433173	     -1.49623628	     -0.50265195	      1.06684762	      0.34490106	     10.68582033	      5.32240538	     -4.43054077	    -17.28921086	      8.33759992	     -1.68613509	      0.68851306	     21.97123220	     -2.41861126	     -1.03974240	    -66.58433762	     10.37341835	      4.03368559	      2.39806506	      0.81650539	      4.91520600	      0.94680957
      0.68716667	     -0.20760548	     -1.11172624	     -1.50025169	     -0.49733474	      1.06752307	      0.34516555	     10.23303746	      5.29982083	     -4.37905399	    -17.09633289	      8.52779793	     -1.66209580	      0.68952539	     22.36035005	     -2.32880050	     -0.91211818	    -65.83573863	     10.78740571	      3.64579598	      2.37222103	      0.88370374	      4.77835451	      1.03857443
      0.69133333	     -0.19575266	     -1.05261201	     -1.53084995	     -0.49211563	      1.06809905	      0.34531734	      9.82479024	      5.25032257	     -4.29982551	    -16.93418132	      8.70127716	     -1.64011706	      0.68930132	     22.75976325	     -2.21263814	     -0.80386771	    -65.01449753	     11.10191137	      3.23535738	      2.33575496	      0.84010849	      4.71206039	      1.11795436
      0.69550000	     -0.17285021	     -0.98398121	     -1.58486773	     -0.48695506	      1.06866455	      0.34543387	      9.41659872	      5.18738456	     -4.22192812	    -16.78906280	      8.87325539	     -1.60673204	      0.68595267	     23.12417884	     -2.08802062	     -0.73177751	    -64.11115048	     11.30921661	      2.69229862	      2.26165359	      0.70197479	      4.65162887	      1.23176345
      0.69966667	     -0.17149017	     -0.95315827	     -1.56492365	     -0.48166825	      1.06917769	      0.34560941	      8.99099746	      5.17765894	     -4.12079940	    -16.56612554	      8.96166892	     -1.61619850	      0.68380939	     23.49215575	     -1.99760682	     -0.58142103	    -63.14006060	     11.45141028	      2.46166189	      2.23056643	      0.75787456	      4.60793477	      1.28672730
      0.70383333	     -0.23103428	     -0.90947078	     -1.56291485	     -0.47647123	      1.06952697	      0.34564777	      8.65279625	      5.14211068	     -4.01834688	    -16.38518598	      9.03178545	     -1.64480523	      0.68231559	     23.91067110	     -1.88164697	     -0.43089909	    -62.11013029	     11.59056864	      2.27747086	      2.21288032	      0.70223142	      4.60177750	      1.30716674
      0.70800000	     -0.17876841	     -0.86184116	     -1.57487741	     -0.47105544	      1.07009992	      0.34586734	      8.15644679	      5.12420452	     -3.91406539	    -16.13985172	      9.19232208	     -1.75050885	      0.67734823	     24.14737953	     -1.78768477	     -0.36678820	    -60.97455382	     11.80765555	      1.71326897	      2.16441795	      0.83307215	      4.47629802	      1.39034711
      0.71216667	     -0.15132030	     -0.79526887	     -1.64727409	     -0.46591167	      1.07053418	      0.34598626	      7.73184040	      5.07588006	     -3.74072791	    -15.96266720	      9.31349713	     -1.90200361	      0.66318144	     24.40719915	     -1.67699983	     -0.35436379	    -59.77649945	     11.76725060	      0.84963196	      2.04524122	      0.61407069	      4.37270981	      1.50278988
      0.71633333	     -0.15497049	     -0.75127541	     -1.64464670	     -0.46058298	      1.07090259	      0.34605516	      7.30612915	      5.05313369	     -3.61620180	    -15.73055870	      9.38523703	     -2.03210885	      0.64786912	     24.66976659	     -1.57095704	     -0.26118309	    -58.50960022	     11.74064454	      0.37965364	      1.93324486	      0.62151879	      4.31721224	      1.60024810
      0.72050000	     -0.18143893	     -0.74324652	     -1.61112054	     -0.45525610	      1.07118060	      0.34612015	      6.89326961	      5.07573572	     -3.46999770	    -15.47095722	      9.45121697	     -2.10979360	      0.64142406	     24.94445118	     -1.49879771	     -0.13111774	    -57.20798837	     11.81118091	      0.14690111	      1.88829183	      0.71340026	      4.35413672	      1.63091122
      0.72466667	     -0.17839028	     -0.68092943	     -1.65969812	     -0.44996829	      1.07148030	      0.34624544	      6.46914620	      5.04365327	     -3.25852000	    -15.25225892	      9.53239688	     -2.40599973	      0.62040989	     25.14233279	     -1.39710255	     -0.11911464	    -55.80305032	     11.69791032	     -0.56526496	      1.75867085	      0.61969895	      4.20075514	      1.71144154
      0.72883333	     -0.19033326	     -0.66488424	     -1.65207250	     -0.44466176	      1.07170119	      0.34631782	      6.04343217	      5.06438284	     -3.04905007	    -14.99141107	      9.54554705	     -2.65619331	      0.59214302	     25.34595616	     -1.32889210	     -0.04744224	    -54.35753418	     11.51937091	     -1.09091261	      1.59204655	      0.62376023	      4.21701846	      1.79044002
      0.73300000	     -0.22341323	     -0.62691293	     -1.65348618	     -0.43928629	      1.07185668	      0.34634252	      5.64217190	      5.05895319	     -2.85162541	    -14.74750270	      9.60487362	     -2.91269613	      0.56765437	     25.53589393	     -1.23658325	      0.01452026	    -52.84679444	     11.42783331	     -1.49615525	      1.45619470	      0.65420527	      4.14185536	      1.84791099
      0.73716667	     -0.27323932	     -0.62837202	     -1.60440387	     -0.43389975	      1.07192050	      0.34628938	      5.25062650	      5.09489627	     -2.69222020	    -14.48362548	      9.65757839	     -3.05157950	      0.55755246	     25.73211297	     -1.16869712	      0.12406792	    -51.30625799	     11.41419091	     -1.68529051	      1.40234430	      0.78319222	      4.22669247	      1.86184687
      0.74133333	     -0.30915971	     -0.58652758	     -1.64868724	     -0.42854518	      1.07198435	      0.34640183	      4.85571936	      5.09911178	     -2.37814918	    -14.24183675	      9.68111449	     -3.53328950	      0.52617639	     25.86980951	     -1.10276910	      0.10976429	    -49.66644122	     11.05817581	     -2.30018465	      1.25008459	      0.74271233	      4.06795155	      1.91918652
      0.74550000	     -0.36244219	     -0.59585742	     -1.59433468	     -0.42313572	      1.07194558	      0.34628502	      4.47111192	      5.14341684	     -2.21245554	    -13.98385541	      9.71689550	     -3.69458926	      0.51467526	     26.01953160	     -1.04143844	      0.20800613	    -48.02283784	     11.01384423	     -2.46169265	      1.19518189	      0.88356743	      4.19839652	      1.92984909
